<svg width="14" height="24" viewBox="0 0 14 24" fill="none" xmlns="http://www.w3.org/2000/svg">
<path d="M10.9062 23.375L0.375 12.875C0.25 12.75 0.161666 12.6146 0.11 12.4688C0.0574997 12.3229 0.03125 12.1667 0.03125 12C0.03125 11.8333 0.0574997 11.6771 0.11 11.5312C0.161666 11.3854 0.25 11.25 0.375 11.125L10.9062 0.59375C11.1979 0.302083 11.5625 0.15625 12 0.15625C12.4375 0.15625 12.8125 0.3125 13.125 0.625C13.4375 0.9375 13.5937 1.30208 13.5937 1.71875C13.5937 2.13542 13.4375 2.5 13.125 2.8125L3.9375 12L13.125 21.1875C13.4167 21.4792 13.5625 21.8383 13.5625 22.265C13.5625 22.6925 13.4062 23.0625 13.0938 23.375C12.7812 23.6875 12.4167 23.8438 12 23.8438C11.5833 23.8438 11.2188 23.6875 10.9062 23.375Z" fill="#FFF"/>
</svg>