<?xml version="1.0" standalone="no"?>
<!DOCTYPE svg PUBLIC "-//W3C//DTD SVG 20010904//EN"
 "http://www.w3.org/TR/2001/REC-SVG-20010904/DTD/svg10.dtd">
<svg version="1.0" xmlns="http://www.w3.org/2000/svg"
 width="1823.000000pt" height="1823.000000pt" viewBox="0 0 1823.000000 1823.000000"
 preserveAspectRatio="xMidYMid meet">
<metadata>
Created by potrace 1.14, written by Peter Selinger 2001-2017
</metadata>
<g transform="translate(0.000000,1823.000000) scale(0.100000,-0.100000)"
fill="#000000" stroke="none">
<path d="M10336 18089 c-12 -30 -16 -68 -14 -147 2 -119 -6 -144 -62 -197
l-33 -30 6 25 c3 14 9 46 12 71 l7 47 -108 36 c-59 20 -109 35 -110 33 -2 -2
19 -197 30 -276 l5 -34 -47 6 c-72 8 -84 30 -76 133 10 124 4 129 -63 42 -117
-151 -151 -185 -200 -202 -26 -9 -48 -16 -51 -16 -7 0 4 154 13 175 7 16 0 13
-31 -12 -65 -52 -86 -52 -136 -3 -36 35 -47 41 -73 36 -41 -9 -46 -16 -66 -93
l-17 -68 -45 3 c-38 3 -59 -4 -141 -47 -54 -28 -106 -51 -117 -51 -31 0 -79
29 -79 48 0 9 11 80 24 156 22 131 24 181 6 174 -5 -2 -32 -36 -62 -77 -88
-123 -146 -136 -230 -54 l-37 36 -32 -47 -33 -47 -34 68 c-40 79 -38 77 -49
70 -8 -5 5 -196 21 -325 l6 -44 -166 86 c-91 47 -168 86 -170 86 -2 0 -11 -26
-20 -57 -9 -32 -18 -59 -19 -61 -2 -2 -30 10 -64 27 -33 17 -63 31 -66 31 -3
0 -5 -47 -5 -105 0 -79 -3 -105 -13 -105 -7 0 -32 39 -56 87 l-43 86 -46 -82
c-37 -66 -48 -79 -54 -64 -4 10 -16 38 -26 61 l-18 44 -23 -19 -24 -19 25
-160 c24 -158 23 -203 -5 -221 -18 -11 -73 61 -93 122 -22 72 -98 155 -121
132 -10 -10 -11 -25 -2 -71 6 -32 8 -60 6 -62 -3 -3 -28 24 -56 60 -107 134
-142 144 -273 74 -76 -42 -79 -44 -73 -73 14 -70 17 -153 6 -174 -16 -28 -40
-27 -121 9 -110 48 -137 37 -127 -51 4 -29 2 -58 -4 -67 -8 -13 -3 -36 21 -97
18 -44 40 -101 50 -126 l19 -47 -101 -18 -101 -19 -11 -45 -11 -45 -60 3
c-143 6 -279 65 -447 191 -58 45 -109 81 -112 81 -3 0 -3 -29 1 -65 4 -48 3
-65 -6 -65 -7 0 -46 14 -88 32 -101 41 -108 37 -108 -69 0 -116 -27 -136 -124
-93 -24 11 -59 20 -78 20 -32 0 -34 -2 -29 -27 3 -16 12 -88 21 -162 17 -143
16 -151 -30 -151 -29 0 -59 22 -151 112 -66 65 -86 79 -103 73 -20 -6 -21 -12
-22 -183 -1 -97 -1 -183 0 -191 4 -25 -17 -6 -75 69 -35 44 -60 69 -62 60 -2
-8 -11 -51 -20 -95 l-17 -80 -139 4 -139 4 7 -29 c4 -16 22 -51 41 -79 56 -82
68 -119 54 -168 l-12 -42 -23 53 c-26 58 -24 58 -101 25 -30 -12 -34 -17 -29
-41 10 -52 38 -302 34 -313 -2 -6 -66 39 -143 100 -77 61 -142 107 -146 103
-11 -13 -50 -252 -59 -363 -9 -115 -25 -158 -58 -160 -31 -2 -67 3 -83 12 -19
10 -23 -1 -35 -88 -3 -29 -9 -53 -13 -53 -3 0 -14 21 -23 48 -36 99 -64 126
-147 139 l-34 6 7 -91 7 -90 -35 8 c-20 4 -37 6 -37 4 -5 -16 -7 -34 -8 -106
-2 -69 -4 -80 -14 -63 -7 10 -25 32 -40 48 -26 28 -32 29 -84 24 -31 -3 -60
-10 -66 -16 -7 -7 -7 -71 2 -202 6 -106 9 -194 7 -197 -3 -3 -37 26 -75 63
-38 37 -79 74 -92 82 -22 16 -22 16 -16 -28 4 -24 9 -69 13 -99 l6 -55 -106
105 -106 105 0 -197 0 -197 -46 19 c-55 24 -90 25 -98 4 -3 -9 -6 -47 -6 -85
0 -38 -3 -69 -6 -69 -4 0 -51 14 -106 30 -157 49 -157 32 -2 -114 102 -96 114
-111 101 -124 -13 -13 -22 -11 -70 17 -30 17 -59 31 -64 31 -5 0 -14 -20 -21
-45 -7 -25 -17 -45 -22 -45 -6 0 -40 30 -76 66 -62 62 -67 65 -95 55 -86 -30
-122 -82 -149 -217 -30 -146 -45 -190 -64 -186 -21 4 -21 2 11 -62 15 -31 25
-57 22 -60 -2 -2 -69 -39 -149 -82 -80 -43 -147 -79 -149 -81 -3 -2 10 -24 27
-48 35 -50 39 -65 19 -65 -14 0 -12 -23 8 -161 5 -35 3 -37 -65 -83 -39 -27
-70 -53 -70 -58 0 -6 20 -46 45 -91 l46 -80 -36 -32 c-19 -18 -35 -38 -35 -45
0 -23 31 -77 60 -105 17 -16 30 -32 30 -37 0 -4 -20 -8 -45 -8 -25 0 -45 -4
-45 -9 0 -24 -32 -306 -35 -311 -2 -4 -54 -24 -115 -44 -143 -50 -144 -59 -10
-126 47 -23 87 -44 89 -46 2 -2 -6 -27 -19 -55 -12 -29 -18 -54 -13 -58 63
-42 143 -107 143 -117 0 -6 -14 -41 -31 -78 -24 -52 -33 -88 -40 -168 -5 -57
-15 -134 -21 -173 -7 -38 -15 -140 -18 -225 -5 -143 -7 -159 -33 -214 -39 -83
-39 -152 2 -279 l31 -98 -20 -129 c-11 -71 -20 -173 -20 -227 0 -77 -5 -108
-21 -143 -67 -149 -85 -344 -50 -553 23 -132 22 -158 -10 -192 -28 -31 -48
-87 -42 -119 4 -17 25 -48 49 -72 l44 -42 -52 -12 c-62 -15 -98 -48 -98 -89 0
-17 25 -92 55 -167 79 -194 113 -330 126 -499 12 -155 29 -247 58 -303 26 -49
204 -321 230 -350 12 -13 34 -71 52 -139 25 -94 28 -118 17 -124 -33 -21 -38
-27 -43 -54 -5 -29 2 -36 177 -170 l182 -140 -66 -15 c-36 -8 -76 -22 -89 -31
l-24 -16 30 -39 c73 -95 127 -119 253 -111 48 3 100 10 116 16 24 10 27 9 22
-5 -22 -56 -22 -55 105 -148 117 -86 121 -89 115 -120 -36 -183 -12 -235 135
-290 l63 -24 44 -131 c24 -72 47 -131 50 -131 29 1 31 18 16 120 -19 131 -25
154 -134 485 -143 436 -173 562 -190 790 -6 72 -17 174 -26 228 -15 91 -15 99
1 123 15 24 19 25 32 11 8 -8 27 -68 42 -133 27 -115 126 -481 178 -654 23
-79 80 -208 106 -238 23 -28 31 25 31 213 1 182 2 192 27 250 15 33 30 82 34
110 4 27 21 76 38 110 31 57 32 65 31 173 l-1 112 38 0 37 0 -29 73 c-37 93
-37 126 -1 160 15 15 33 27 39 27 26 0 126 -106 155 -164 17 -34 37 -69 46
-78 20 -24 64 -23 112 2 22 11 42 20 45 20 15 0 85 -167 85 -203 0 -51 -11
-71 -81 -143 l-60 -60 21 -46 c22 -50 32 -171 46 -538 l7 -186 -25 -29 c-39
-45 -65 -31 -208 111 -69 68 -130 124 -134 124 -5 0 -6 -48 -4 -107 3 -90 8
-117 30 -165 46 -99 142 -171 268 -200 27 -6 50 -15 50 -18 0 -52 67 -653 96
-855 22 -163 111 -691 140 -840 116 -588 351 -1191 730 -1870 64 -115 173
-322 242 -460 181 -362 267 -500 416 -669 135 -153 331 -294 786 -563 464
-274 579 -323 775 -323 187 0 396 -62 850 -250 55 -23 127 -48 161 -55 71 -17
337 -48 589 -69 774 -65 1123 -42 1553 103 303 103 422 165 594 312 137 117
567 531 623 599 51 63 749 1226 977 1630 178 313 276 544 453 1060 66 192 67
196 61 272 -4 43 -9 84 -12 93 -5 12 2 15 34 15 l40 0 4 76 c2 42 0 78 -3 80
-3 2 -23 -8 -43 -22 -58 -40 -65 -21 -28 70 19 48 26 76 19 76 -7 1 -79 9
-160 18 -145 17 -149 17 -159 -1 -8 -15 1 -35 46 -103 80 -120 72 -128 -89
-94 -49 10 -93 17 -96 14 -4 -2 -12 -34 -19 -71 -6 -38 -14 -76 -17 -85 -4
-15 3 -18 44 -18 86 0 95 6 91 58 -2 27 1 47 8 49 6 2 37 -39 69 -92 83 -138
71 -151 -96 -110 -118 30 -127 28 -130 -20 -3 -42 3 -62 37 -117 l34 -57 -46
-115 -46 -116 -37 29 c-82 65 -160 83 -200 47 -11 -10 -32 -54 -47 -98 -19
-59 -33 -84 -56 -101 -30 -22 -30 -23 -26 -95 4 -56 10 -78 25 -94 20 -20 20
-19 98 104 43 68 84 129 90 136 10 11 24 -1 74 -57 l63 -70 -86 -56 c-47 -31
-86 -58 -86 -59 0 -2 7 -17 15 -32 8 -16 15 -49 15 -73 0 -40 -5 -49 -45 -87
l-44 -43 34 -11 c36 -12 40 -17 27 -37 -6 -9 -39 -4 -130 19 l-122 31 37 46
c20 25 53 66 73 90 l35 44 -40 -7 c-78 -15 -114 -45 -155 -129 -24 -50 -27
-52 -72 -57 -46 -6 -78 -23 -66 -35 3 -4 52 -19 109 -34 57 -16 97 -31 89 -35
-42 -16 -268 -46 -349 -46 l-91 0 0 -30 0 -30 150 0 c83 0 150 -4 150 -8 0
-13 -131 -366 -139 -374 -4 -5 -47 40 -96 99 -83 99 -90 105 -93 80 -5 -40 33
-111 82 -154 23 -21 50 -49 59 -63 16 -24 14 -28 -34 -115 -28 -50 -54 -94
-58 -98 -4 -4 -18 39 -30 95 -13 57 -29 126 -36 153 l-12 50 -11 -40 c-7 -22
-14 -76 -18 -120 -9 -132 -20 -155 -73 -155 -63 0 -101 -69 -101 -181 0 -56
-23 -105 -58 -123 -27 -14 -31 -14 -36 0 -13 35 -5 71 25 107 17 21 29 40 27
43 -5 5 -221 34 -254 34 -21 0 -25 -8 -71 -117 -3 -9 18 -13 79 -15 l83 -3 3
-57 c5 -89 -14 -121 -92 -158 -49 -23 -80 -48 -125 -99 -34 -38 -61 -72 -61
-76 0 -4 12 -34 26 -66 15 -33 25 -61 22 -64 -3 -4 -318 -74 -336 -75 -4 -1
24 -29 62 -64 42 -38 66 -67 62 -74 -4 -7 -27 -12 -52 -12 -24 0 -44 -2 -44
-5 0 -3 14 -32 30 -65 17 -33 30 -63 30 -68 0 -5 -21 -12 -47 -15 -43 -4 -53
-11 -105 -68 l-57 -62 -40 18 c-67 30 -131 18 -242 -45 -52 -29 -113 -74 -136
-98 l-42 -45 -95 11 c-52 7 -126 12 -165 12 -63 0 -71 2 -90 26 -12 15 -21 33
-21 40 0 16 -46 18 -123 5 -41 -7 -49 -5 -58 11 -8 15 1 32 50 93 34 41 61 78
61 82 0 10 -59 48 -88 57 -34 11 -78 -22 -125 -94 -23 -36 -57 -82 -76 -103
-33 -37 -97 -77 -122 -77 -7 0 -40 -18 -74 -39 -118 -75 -261 -99 -395 -67
-64 15 -63 5 -14 156 25 78 30 106 21 112 -26 17 -43 -1 -100 -110 l-59 -112
-28 30 c-35 37 -46 37 -101 1 -47 -32 -65 -30 -93 11 -27 38 -20 87 20 146 20
29 35 54 33 56 -2 2 -74 -9 -159 -25 -85 -16 -161 -29 -167 -29 -21 0 -15 20
17 56 16 19 33 46 36 60 10 37 -21 139 -63 207 l-35 58 -67 -6 c-36 -3 -83 -8
-104 -11 l-37 -6 6 101 c4 58 3 101 -2 101 -5 -1 -20 -7 -34 -15 -47 -27 -56
-20 -76 57 -31 119 -64 146 -242 198 l-73 21 41 30 c47 34 71 81 63 122 -3 15
-24 48 -47 73 l-41 45 -35 -46 c-19 -26 -55 -58 -79 -72 l-44 -26 6 51 c3 28
15 69 27 92 12 23 20 43 18 45 -13 10 -143 85 -148 85 -4 0 -5 -11 -2 -25 2
-14 1 -25 -3 -25 -3 0 -46 37 -95 82 -93 87 -96 98 -27 98 20 0 37 4 37 10 0
13 -51 254 -55 258 -2 2 -11 -21 -20 -50 -22 -65 -31 -76 -38 -45 -8 28 -36
43 -101 52 -25 4 -46 10 -46 14 0 4 11 36 26 70 14 35 23 65 20 68 -3 3 -73
-36 -157 -86 -83 -51 -154 -89 -157 -86 -3 3 -6 21 -6 41 0 53 29 75 108 81
l66 6 0 83 0 83 -110 -2 c-61 -1 -110 1 -110 4 0 4 7 23 15 42 18 44 19 89 3
105 -7 7 -43 12 -90 12 -83 0 -93 7 -63 46 8 10 15 22 15 25 0 3 -34 32 -75
65 -42 32 -78 68 -81 80 -3 12 2 36 11 54 21 40 14 67 -25 105 -37 36 -83 38
-127 7 -40 -28 -43 -28 -38 6 2 15 6 55 9 88 l5 62 -94 72 c-52 40 -95 77 -95
82 0 15 23 19 118 21 l90 2 51 67 c28 37 51 69 51 72 0 3 -32 -6 -72 -20 -39
-13 -73 -22 -75 -20 -2 2 23 65 57 141 33 76 60 142 60 147 0 14 -127 5 -246
-16 -93 -17 -104 -17 -155 -3 -30 9 -62 22 -73 30 -17 12 -13 17 53 67 95 70
121 105 121 161 0 78 -9 79 -96 21 -73 -49 -78 -51 -96 -36 -10 10 -18 20 -18
23 0 3 25 17 55 30 43 18 53 27 45 37 -9 10 -20 10 -56 -3 -35 -12 -48 -13
-57 -4 -9 9 -9 14 -1 19 6 4 55 45 109 92 l98 85 -72 3 c-47 2 -71 7 -71 15 0
7 9 36 20 66 12 29 19 55 16 58 -2 2 -23 -7 -46 -22 -23 -15 -44 -24 -47 -21
-3 2 0 28 6 57 6 28 10 53 9 54 -2 2 -34 -2 -71 -7 -37 -6 -69 -9 -71 -7 -2 2
0 51 5 109 4 58 8 147 8 198 1 104 16 215 37 275 8 22 13 42 10 44 -2 2 -36
-15 -75 -38 -40 -23 -73 -40 -75 -38 -3 3 -27 79 -51 156 -3 8 -23 1 -59 -18
-49 -27 -57 -29 -62 -14 -5 11 7 30 36 60 l43 43 -23 32 c-24 34 -27 34 -116
-5 -103 -46 -164 -123 -179 -228 l-8 -49 -28 49 c-15 26 -40 85 -55 130 -26
81 -26 81 -70 92 -68 17 -89 65 -64 150 8 30 6 38 -20 68 -17 18 -30 39 -30
46 0 7 23 24 50 37 l51 25 -30 35 c-38 45 -38 50 2 50 17 0 42 3 55 6 l23 7
-3 183 -3 183 -29 30 c-15 16 -57 43 -91 60 -62 31 -64 33 -71 76 -7 53 9 100
40 117 11 7 58 21 104 33 l82 22 32 -51 c17 -28 33 -53 34 -54 1 -2 12 -1 23
3 19 6 19 8 6 29 -12 18 -13 33 -4 80 9 51 8 60 -8 78 -26 29 -133 20 -235
-20 -43 -17 -78 -27 -78 -24 0 4 21 62 46 130 46 119 47 123 28 137 -10 8 -23
14 -29 14 -5 0 -38 -36 -73 -79 l-63 -80 -69 47 c-39 25 -70 47 -70 49 0 2 27
11 60 20 72 20 82 44 18 44 l-43 0 -33 83 c-18 45 -32 97 -32 116 0 19 14 77
31 130 46 145 40 241 -20 318 -19 24 -20 27 -4 57 29 55 22 120 -25 222 l-42
91 30 81 c48 131 98 320 110 412 16 121 24 143 102 244 40 53 95 146 134 223
77 156 105 190 164 199 67 11 83 33 78 112 l-3 67 48 8 47 9 -7 37 c-13 65
-10 86 12 89 17 2 24 -10 44 -73 14 -41 28 -75 32 -75 12 0 41 84 46 136 9 87
-4 140 -45 186 -34 38 -35 40 -12 33 53 -16 87 -35 128 -73 l43 -39 -20 -77
c-17 -65 -19 -85 -9 -120 6 -23 8 -54 4 -70 -8 -33 -84 -89 -129 -96 -27 -4
-34 -12 -45 -45 -26 -77 9 -232 67 -297 l27 -30 63 111 c71 126 98 150 202
181 83 26 122 25 178 -2 82 -39 133 -36 262 15 63 25 127 49 142 53 l28 7 -27
28 -27 28 28 33 c35 43 117 129 138 146 18 15 45 5 84 -30 l21 -20 36 76 c32
70 39 79 81 97 34 15 172 49 200 49 1 0 -1 19 -6 41 -6 23 -8 44 -5 46 2 2 21
0 43 -6 57 -16 105 -13 157 10 62 27 133 34 227 20 42 -6 161 -15 265 -21 547
-30 654 -42 859 -95 158 -41 217 -85 201 -148 l-6 -27 -393 0 -392 -1 28 -24
c37 -33 111 -53 232 -66 136 -13 200 -34 247 -81 21 -21 38 -44 38 -52 0 -23
-94 -49 -156 -44 -40 4 -65 13 -99 37 -44 32 -45 32 -222 42 -98 6 -275 11
-393 12 -214 2 -216 2 -315 -29 -98 -30 -100 -30 -108 -11 -4 11 -6 21 -5 23
2 1 64 31 138 67 l135 65 -72 1 c-200 3 -462 -70 -610 -170 -26 -17 -76 -59
-110 -93 l-63 -60 0 37 c0 30 -5 40 -25 49 -14 6 -27 9 -28 7 -2 -2 -37 -53
-77 -112 -68 -99 -76 -108 -99 -102 -54 13 -208 79 -256 109 -65 41 -129 41
-282 1 -109 -29 -113 -31 -113 -57 0 -17 6 -29 18 -32 9 -3 143 -28 297 -57
154 -28 281 -52 283 -54 1 -1 -14 -15 -35 -30 -21 -16 -54 -43 -75 -61 l-36
-32 31 -6 c34 -6 979 -136 1011 -139 10 -1 20 3 22 8 2 6 -48 30 -111 55 -63
25 -115 48 -115 51 0 12 75 19 201 19 l127 0 26 -35 c19 -25 35 -35 54 -35 32
0 112 29 112 41 0 4 -18 23 -40 40 -22 18 -38 34 -36 36 2 2 52 -1 110 -8 122
-13 113 -2 92 -131 -13 -82 -11 -88 34 -88 19 0 29 27 61 153 8 32 17 47 28
47 9 0 86 -16 171 -36 153 -36 155 -36 210 -20 43 13 504 60 765 78 l40 3
-167 129 c-93 71 -168 132 -168 136 0 4 33 15 74 25 l75 19 28 -30 c16 -16 57
-53 91 -82 79 -68 95 -97 90 -173 l-3 -58 48 -11 c78 -16 93 -13 114 23 29 49
123 271 123 291 0 9 -7 31 -16 47 -8 17 -13 33 -11 36 9 9 75 -58 92 -93 23
-50 13 -77 -40 -109 -64 -37 -71 -62 -44 -147 13 -37 25 -68 29 -68 20 0 104
65 131 102 80 109 96 207 54 333 -15 44 -29 113 -32 152 -5 65 -3 78 21 127
22 44 25 59 16 76 -13 24 -8 23 -59 5 -53 -18 -61 -44 89 294 65 146 117 267
115 270 -2 2 -24 -8 -49 -22 l-46 -25 -9 36 c-5 20 -12 52 -16 70 -4 17 -9 32
-12 32 -3 0 -55 -47 -115 -105 -60 -58 -114 -105 -119 -105 -5 0 -20 24 -35
53 -40 79 -69 113 -126 145 -87 50 -282 112 -383 122 -49 5 -146 23 -215 39
-152 37 -209 38 -325 6 -110 -30 -302 -37 -291 -10 16 42 -16 54 -96 35 -88
-19 -306 -45 -388 -45 -56 0 -116 8 -177 24 -60 15 -105 21 -127 17 -38 -7
-92 -60 -102 -100 -3 -15 -16 -27 -31 -31 -14 -3 -58 -21 -98 -40 -71 -34 -87
-52 -99 -107 -5 -22 -15 -30 -59 -42 -28 -8 -64 -18 -78 -20 -14 -3 -88 -63
-170 -138 -79 -73 -175 -160 -213 -193 -38 -32 -91 -83 -118 -112 -59 -61
-118 -93 -175 -93 -76 0 -78 6 -23 71 l51 58 -30 52 -30 52 53 38 c99 71 164
196 173 332 4 46 10 77 17 77 6 0 27 5 48 10 l36 10 7 88 c15 199 34 251 140
382 36 44 65 83 65 85 0 3 -22 5 -49 5 -42 0 -53 -4 -74 -30 -14 -16 -31 -46
-37 -67 -20 -60 -30 -62 -30 -5 0 78 18 102 125 171 82 53 101 70 138 129 67
104 67 104 522 302 61 26 144 58 185 70 41 12 123 46 182 75 129 64 183 74
255 47 l52 -20 45 33 c109 77 236 111 376 99 77 -7 80 -6 126 25 92 61 98 61
338 11 l109 -23 166 33 c91 18 182 39 201 47 95 40 122 44 325 43 159 0 220
-4 295 -20 130 -27 170 -25 326 15 193 50 261 46 411 -26 66 -31 93 -52 139
-103 31 -36 64 -67 73 -69 20 -4 120 24 184 52 90 39 120 22 109 -63 l-4 -39
58 5 c41 3 86 17 144 44 77 35 92 39 160 38 142 -3 186 -35 200 -146 4 -36 15
-77 24 -91 23 -35 83 -73 134 -87 41 -11 47 -9 90 19 l47 31 7 -45 c17 -116
89 -175 213 -175 l72 0 18 -40 c49 -108 176 -190 302 -196 40 -1 81 -8 93 -14
11 -6 38 -47 60 -91 45 -89 54 -95 153 -105 58 -6 92 -1 202 31 18 5 28 -9 79
-119 55 -119 57 -126 42 -148 -32 -46 -21 -103 41 -212 50 -86 57 -106 58
-153 l0 -55 43 4 c23 2 42 -1 42 -7 0 -5 -7 -67 -16 -137 -8 -71 -14 -135 -12
-144 2 -11 20 -4 72 31 37 25 69 45 71 43 5 -6 56 -200 53 -203 -2 -2 -39 12
-83 30 -44 18 -83 31 -87 29 -22 -14 2 -33 92 -76 l100 -47 0 -198 c0 -410 30
-757 105 -1203 32 -196 57 -387 69 -550 6 -71 43 -874 47 -1007 2 -43 6 -63
15 -63 19 0 120 96 193 185 101 121 153 199 211 315 90 180 149 260 340 453
96 98 186 184 200 191 14 8 51 19 82 25 74 16 104 40 113 92 6 33 10 39 28 37
21 -3 22 2 28 85 5 73 20 129 90 342 45 141 86 254 90 253 4 -2 35 -38 69 -82
34 -43 65 -74 69 -70 3 5 67 190 141 412 l135 402 33 6 c18 4 34 10 37 14 3 5
-6 32 -20 62 -32 68 -31 86 5 158 32 64 32 65 -18 51 -27 -8 -34 -7 -43 11 -6
11 -9 21 -7 22 2 1 29 15 61 30 32 15 71 39 87 53 27 23 30 30 30 86 -1 34 -7
110 -14 170 -7 59 -11 109 -9 111 2 2 42 -3 90 -11 47 -7 87 -12 89 -10 2 2
-1 20 -7 41 -6 21 -9 39 -7 41 2 1 54 28 117 60 75 37 110 60 101 65 -7 4 -79
34 -161 66 -82 33 -149 62 -149 65 0 3 43 19 95 35 52 16 95 31 95 34 0 3 -72
4 -160 2 -88 -2 -160 0 -160 5 0 4 8 31 19 58 10 28 21 70 25 95 13 92 49 112
289 166 70 15 122 31 115 34 -7 4 -106 31 -220 60 -245 63 -251 68 -136 126
l71 36 -29 23 c-16 13 -41 31 -56 40 -27 15 -28 15 -68 -21 -22 -20 -43 -35
-45 -32 -3 3 -8 56 -12 118 l-6 112 44 -7 c58 -10 151 -8 199 5 52 14 157 62
145 66 -5 2 -69 12 -141 23 -72 11 -149 27 -170 36 -40 16 -78 61 -89 106 -6
26 -4 27 77 49 46 12 86 25 90 29 4 3 -38 24 -92 45 -97 38 -100 40 -100 70 0
21 17 55 50 104 55 81 61 111 30 157 -11 17 -20 32 -20 35 0 3 23 19 50 35 86
50 73 53 -123 29 -70 -8 -132 -14 -136 -12 -5 2 9 64 30 138 22 74 39 138 39
142 0 4 -30 -4 -66 -18 -37 -14 -68 -23 -69 -22 -1 2 4 53 11 113 7 61 13 115
14 121 0 7 38 64 85 128 47 64 85 121 85 126 0 6 -54 10 -134 10 l-134 0 -6
28 c-3 15 -11 65 -17 112 -6 47 -16 91 -21 98 -20 24 -37 11 -54 -40 -17 -53
-17 -53 -26 -23 -20 74 -38 270 -38 421 0 90 -4 164 -9 164 -4 0 -32 -10 -61
-22 -66 -27 -73 -19 -64 78 9 101 -2 149 -42 193 l-33 38 29 78 c16 44 28 81
25 83 -2 2 -14 -3 -27 -12 -12 -9 -26 -16 -30 -16 -4 0 -9 93 -10 207 -2 145
-6 207 -15 210 -6 2 -48 -64 -95 -151 -45 -86 -87 -156 -93 -156 -31 0 -36 20
-44 171 -7 137 -11 160 -35 210 -14 32 -33 62 -41 69 -17 14 -19 8 -39 -134
-8 -54 -16 -100 -18 -102 -2 -2 -71 161 -153 362 -82 201 -153 367 -157 370
-4 3 -25 -4 -47 -16 -46 -23 -74 -25 -89 -7 -6 7 -18 46 -26 86 -9 41 -18 76
-20 78 -3 3 -31 -11 -63 -31 -32 -20 -62 -36 -66 -36 -4 0 -8 152 -9 337 l-3
337 -54 -85 c-54 -83 -55 -84 -62 -54 -13 56 -10 174 6 212 8 19 15 53 15 74
0 34 -7 46 -50 87 l-50 48 -18 159 -17 159 -94 -90 c-52 -49 -91 -80 -87 -69
21 55 46 187 46 240 0 51 -7 75 -50 163 -27 56 -51 102 -54 102 -2 0 -50 -58
-105 -129 -56 -72 -105 -133 -111 -136 -5 -3 -18 -2 -28 4 -13 7 -28 55 -60
193 -23 101 -42 186 -42 190 0 3 8 8 18 10 11 2 0 12 -35 31 -29 15 -55 27
-57 27 -2 0 -9 -24 -16 -52 -7 -29 -16 -71 -22 -93 l-10 -39 -12 29 c-16 39
-40 140 -67 289 -17 93 -27 125 -45 143 -48 48 -52 37 -56 -131 -3 -132 -6
-157 -21 -174 -17 -19 -83 -39 -94 -28 -3 2 -40 139 -82 303 -76 291 -78 298
-104 301 -23 3 -27 -2 -37 -40 -36 -137 -102 -373 -105 -377 -16 -15 -34 23
-59 123 -23 96 -31 116 -46 116 -15 0 -20 -10 -25 -47 -4 -27 -9 -65 -13 -86
l-7 -37 -110 100 -110 100 -30 -65 -30 -65 -199 265 c-109 146 -202 268 -207
271 -4 2 -13 -14 -19 -36 -6 -22 -15 -40 -20 -40 -5 0 -35 17 -67 38 -70 44
-114 63 -211 92 -82 24 -135 64 -177 135 -50 86 -96 96 -147 34 l-34 -41 -44
81 c-23 45 -47 81 -51 81 -23 0 -60 -26 -65 -47 -5 -20 3 -71 21 -134 3 -8 -1
-23 -8 -32 -11 -16 -16 -16 -76 8 -35 14 -65 25 -67 23 -1 -2 26 -84 61 -183
l63 -180 -60 65 c-84 89 -114 155 -109 240 7 142 5 199 -13 293 -10 53 -21 97
-26 97 -4 0 -15 -18 -24 -41z m-2004 -8905 c91 -46 138 -83 138 -108 0 -24
-33 -41 -164 -86 -76 -26 -109 -25 -141 3 -25 21 -26 24 -16 83 5 33 15 80 21
104 l11 43 49 -6 c27 -3 72 -18 102 -33z m-3813 -1136 c6 -79 14 -181 17 -228
l6 -85 -206 205 c-113 113 -206 208 -206 212 0 5 48 8 108 9 59 0 136 6 172
14 36 7 72 13 81 14 13 1 18 -22 28 -141z m1072 -2882 c-11 -12 -33 -29 -49
-38 l-29 -18 17 78 c10 42 31 131 46 197 l29 120 3 -159 c2 -147 1 -161 -17
-180z m443 -2193 c31 -21 56 -40 56 -43 0 -6 -193 -41 -198 -36 -7 8 39 95 55
105 25 15 24 15 87 -26z m246 -470 c36 -47 66 -89 68 -94 3 -6 -187 29 -197
37 -5 5 50 144 57 144 4 -1 36 -40 72 -87z m5760 -204 c0 -92 -7 -99 -96 -99
-69 0 -75 2 -72 19 3 18 143 141 160 141 4 0 8 -27 8 -61z m-404 -637 c36 -23
23 -121 -31 -238 -27 -59 -38 -74 -55 -74 -21 0 -22 3 -18 76 4 79 12 94 56
94 21 0 22 4 22 75 0 73 3 82 26 67z m245 -174 c33 -124 -58 -242 -214 -278
-50 -11 -39 1 61 70 l80 53 22 103 c13 57 27 101 31 98 5 -3 13 -23 20 -46z"/>
<path d="M11817 10204 c-4 -4 -7 -20 -7 -36 l0 -28 -257 0 c-142 0 -301 5
-354 12 -90 11 -98 10 -130 -8 -23 -14 -39 -33 -49 -62 -16 -48 -26 -50 -87
-22 l-42 19 -43 -33 c-24 -18 -75 -54 -114 -79 -93 -59 -106 -89 -69 -160 33
-64 32 -85 -7 -148 -32 -51 -33 -55 -34 -168 0 -74 -7 -146 -19 -199 -22 -97
-20 -106 70 -327 89 -218 140 -320 171 -342 77 -54 381 -194 486 -223 l70 -19
-6 22 c-4 12 -9 45 -13 73 -9 83 -6 84 276 77 207 -4 241 -8 279 -25 23 -11
42 -23 42 -28 0 -5 23 -27 51 -49 59 -47 99 -52 185 -26 68 21 92 19 126 -10
37 -31 40 -31 113 3 118 56 179 47 210 -30 9 -22 15 -42 13 -43 -2 -2 -64 -13
-138 -26 -74 -12 -139 -25 -143 -29 -4 -4 -5 -14 -1 -23 6 -16 34 -17 323 -15
l316 3 3 95 c4 123 -6 155 -72 223 -64 67 -93 133 -136 306 -26 103 -41 151
-54 168 -1 1 -24 -9 -51 -22 -26 -14 -60 -25 -75 -25 -14 0 -64 19 -111 41
-46 23 -119 56 -161 74 l-77 33 -15 -23 c-14 -21 -13 -23 47 -51 140 -66 265
-172 346 -292 l43 -64 -28 -29 c-33 -35 -41 -36 -50 -6 -3 12 -16 42 -27 66
-20 42 -27 47 -161 111 -163 78 -277 124 -466 187 -126 43 -145 46 -285 54
-82 4 -164 12 -180 17 -42 13 -118 52 -112 59 3 2 87 21 187 41 99 20 182 42
182 47 1 6 -22 24 -51 42 -84 50 -189 61 -393 38 -21 -3 -38 -2 -38 1 0 4 28
38 63 77 46 53 63 66 65 53 3 -15 10 -17 35 -12 88 18 384 37 497 33 130 -5
277 -37 400 -87 92 -37 182 -60 240 -60 148 0 218 -66 236 -219 l7 -62 65 7
c61 6 65 6 58 -12 -23 -57 -20 -84 15 -120 18 -19 39 -34 46 -34 8 0 32 -18
54 -41 21 -22 55 -47 74 -55 45 -18 115 -18 164 2 48 19 54 41 40 161 -20 175
-86 315 -249 530 -52 69 -123 162 -157 207 -82 107 -91 125 -73 136 8 6 20 11
25 13 6 2 -12 30 -40 62 l-50 59 -19 -47 c-11 -26 -23 -47 -28 -47 -4 0 -56
18 -114 40 -133 51 -205 70 -264 70 -77 0 -116 17 -184 81 -82 76 -137 100
-251 110 -49 4 -99 11 -110 14 -11 3 -24 3 -28 -1z m-896 -1274 c-50 -33 -94
-60 -96 -60 -6 0 -55 97 -55 110 0 6 44 10 121 10 l121 0 -91 -60z m559 -69
c14 -91 10 -105 -25 -89 -27 12 -28 16 -19 107 10 87 29 80 44 -18z"/>
<path d="M9369 8055 c-17 -47 -33 -85 -36 -85 -2 0 -26 11 -53 25 l-50 25 22
-44 c27 -55 18 -69 -53 -86 -51 -13 -74 -36 -63 -65 9 -23 203 -119 209 -103
2 7 27 101 54 208 51 195 52 209 14 210 -6 0 -26 -38 -44 -85z"/>
<path d="M8514 7488 c-32 -63 -42 -156 -25 -224 7 -26 34 -93 61 -148 56 -115
101 -267 82 -274 -23 -7 -12 -21 23 -28 60 -11 47 -21 -28 -21 -54 0 -82 -6
-112 -22 -53 -28 -78 -27 -118 9 l-34 30 -64 -14 c-35 -7 -92 -25 -126 -40
-79 -33 -120 -33 -168 -1 l-37 26 -37 -42 c-20 -23 -40 -48 -44 -56 -18 -30
-23 -9 -15 64 10 88 7 103 -21 103 -13 0 -41 -28 -83 -84 l-62 -84 -96 -5
c-52 -3 -115 -11 -139 -18 -41 -13 -44 -13 -62 10 -10 13 -19 31 -19 41 0 10
45 60 104 113 92 84 103 98 92 113 -12 16 -21 11 -108 -49 -52 -36 -117 -90
-144 -118 -111 -119 -111 -119 -142 -119 -24 0 -46 -16 -111 -81 -44 -44 -81
-87 -81 -95 0 -31 -40 -91 -92 -138 -178 -163 -188 -177 -191 -269 -2 -75 -25
-112 -97 -156 -68 -42 -74 -56 -55 -136 8 -37 15 -70 15 -75 0 -5 -22 -6 -49
-3 -41 5 -52 2 -70 -16 -19 -19 -21 -32 -21 -133 -1 -131 -28 -302 -59 -372
l-21 -49 22 -25 c13 -13 44 -42 70 -64 l48 -40 34 36 c18 20 38 36 44 36 6 0
23 -11 39 -24 l28 -24 -74 -81 -73 -81 47 -21 c59 -26 95 -19 140 28 19 20 35
34 35 32 0 -2 -7 -29 -15 -59 -15 -57 -10 -70 27 -70 27 0 118 -37 139 -56 26
-23 24 -79 -4 -129 l-23 -40 -90 3 c-88 4 -91 3 -97 -19 -3 -12 -4 -26 -1 -30
3 -5 45 -43 95 -85 79 -67 91 -74 96 -56 4 16 16 21 61 26 123 15 117 11 130
74 7 31 16 63 21 71 10 16 70 19 163 8 l67 -7 -6 137 c-3 76 -8 141 -12 145
-3 3 -63 27 -133 53 -71 26 -128 49 -128 51 0 2 48 30 108 63 59 34 113 65
120 69 10 7 9 17 -3 51 -8 24 -15 65 -15 90 0 74 39 103 150 116 32 3 72 16
95 30 138 84 221 86 323 7 l24 -18 -89 -71 c-101 -80 -128 -120 -113 -172 10
-34 107 -161 251 -326 101 -115 183 -197 253 -249 113 -84 474 -237 640 -271
44 -9 143 -23 220 -31 78 -8 204 -24 281 -34 77 -11 187 -22 245 -25 151 -9
751 -12 743 -5 -5 4 -82 33 -173 64 -91 32 -169 62 -174 66 -5 5 8 50 29 104
l38 95 21 -32 c12 -18 35 -38 51 -46 27 -13 35 -10 189 68 187 95 195 96 364
55 125 -31 168 -62 179 -129 6 -38 6 -38 -111 -150 l-117 -112 92 -6 c229 -17
301 -5 451 72 142 73 376 230 421 282 23 27 69 67 102 89 141 92 176 170 144
320 -6 28 -9 53 -7 56 7 6 108 -26 151 -48 61 -31 87 -116 47 -153 -29 -26
-25 -57 15 -95 38 -37 38 -37 70 16 l22 37 23 -59 c54 -145 52 -212 -10 -267
l-39 -36 31 -81 c24 -61 35 -79 47 -76 9 2 38 7 65 11 l49 7 -23 -39 c-13 -21
-32 -51 -43 -66 -10 -16 -18 -30 -16 -31 2 -2 27 -15 56 -30 52 -26 73 -48
160 -166 47 -64 49 -65 99 -68 49 -3 53 -1 82 35 49 62 224 346 210 341 -44
-17 -239 -70 -242 -67 -6 6 -56 326 -56 355 0 35 26 54 74 54 52 0 88 25 117
82 l20 39 45 -41 c28 -26 51 -39 62 -36 9 3 45 10 78 16 l61 12 7 127 c7 144
-1 188 -42 240 -64 79 -63 97 1 173 22 27 38 50 36 52 -2 2 -28 14 -57 26 -52
22 -54 24 -47 54 21 94 16 201 -20 411 -32 184 -39 212 -60 230 -33 29 -191
319 -225 415 -33 94 -41 105 -89 130 -54 27 -83 64 -140 175 -63 125 -103 165
-199 199 l-73 26 -15 -35 c-7 -19 -14 -41 -14 -50 0 -42 39 -95 148 -203 93
-92 121 -126 130 -158 19 -68 -9 -133 -94 -214 l-47 -45 6 83 6 82 -38 25
c-21 14 -98 53 -172 86 -159 71 -215 106 -257 158 -30 37 -34 39 -64 30 -50
-14 -126 -11 -161 7 -45 23 -117 83 -117 97 0 7 34 57 75 112 50 68 70 102 62
106 -43 25 -478 161 -552 174 -111 18 -239 19 -368 0 -86 -12 -101 -17 -125
-43 -73 -78 -169 -88 -283 -29 -63 33 -75 36 -122 31 -65 -8 -80 6 -81 74 l-1
47 -105 12 c-199 22 -366 33 -645 42 -450 15 -508 38 -575 224 -18 48 -34 87
-36 87 -2 0 -16 -24 -30 -52z m1768 -855 c4 -21 -9 -30 -160 -108 -96 -49
-116 -55 -127 -44 -10 10 -11 26 -6 57 5 23 11 45 13 48 5 4 244 62 265 63 6
1 13 -7 15 -16z m-180 -832 c18 -21 41 -59 50 -85 l17 -45 -31 -26 c-85 -72
-165 -93 -393 -105 -100 -5 -188 -12 -197 -15 -14 -6 -22 11 -48 97 -17 57
-33 109 -35 116 -6 16 10 15 73 -3 77 -23 154 -21 199 4 84 47 143 72 204 85
107 23 123 21 161 -23z m-1426 -297 c23 -13 72 -48 109 -79 37 -30 70 -55 74
-55 3 0 33 25 66 55 111 101 136 104 293 31 92 -42 103 -44 212 -50 180 -10
392 -26 427 -31 23 -4 38 -16 54 -43 12 -20 23 -38 24 -40 1 -1 44 12 96 29
83 29 107 32 209 33 128 0 202 -16 258 -58 l34 -24 50 29 c72 43 116 59 158
59 31 0 44 -7 69 -35 17 -19 38 -49 46 -65 9 -17 17 -30 18 -30 1 0 53 20 115
44 61 24 114 41 116 38 2 -4 14 -57 26 -119 13 -61 26 -117 30 -124 6 -9 21
-10 59 -2 31 6 51 6 51 1 0 -8 -101 -353 -115 -395 -2 -8 -28 4 -70 32 -108
73 -221 100 -459 111 -122 5 -153 3 -233 -15 -105 -24 -230 -27 -463 -11 -231
16 -473 40 -503 50 -16 5 -56 32 -90 59 l-62 49 -30 -16 c-22 -12 -55 -17
-120 -17 -80 0 -95 3 -137 27 -25 16 -66 50 -90 78 l-44 50 -58 -40 c-125 -85
-204 -85 -290 2 l-50 49 -73 -51 c-115 -80 -121 -82 -244 -61 -115 20 -158 37
-182 75 -16 24 -16 25 26 59 61 49 63 50 107 27 l40 -20 0 117 c0 228 31 252
190 149 39 -25 72 -46 74 -46 2 0 22 30 44 68 44 73 95 127 127 135 30 6 65
-3 111 -29z m3725 -1200 c53 -32 58 -37 46 -54 -17 -25 -107 -120 -112 -120
-3 0 -5 47 -5 105 0 58 3 105 6 105 4 0 33 -16 65 -36z"/>
<path d="M5645 6923 l-60 -48 70 -8 c105 -12 106 -13 56 -57 l-44 -38 42 -12
c51 -14 67 -4 80 49 24 95 24 95 -25 129 -24 18 -48 32 -52 32 -4 0 -34 -21
-67 -47z"/>
<path d="M5418 6640 c-48 -50 -59 -70 -35 -70 6 0 55 11 107 25 52 13 96 23
97 21 2 -2 -6 -24 -17 -50 -11 -26 -20 -53 -20 -59 0 -7 19 -23 42 -36 l42
-24 -60 -27 c-93 -42 -138 -113 -120 -186 7 -27 7 -27 82 -20 l74 7 0 -70 c0
-62 -4 -78 -40 -146 -22 -42 -40 -78 -40 -80 0 -3 22 -5 49 -5 57 0 94 -30
113 -91 6 -22 15 -39 19 -39 4 0 47 43 96 96 85 92 164 154 195 154 9 0 26 8
38 18 l22 18 -53 29 c-57 30 -56 31 26 50 32 7 49 16 47 25 -2 7 -71 118 -154
247 l-151 233 -54 -31 -55 -30 -27 24 c-45 43 -94 67 -135 67 -34 0 -46 -7
-88 -50z"/>
<path d="M12442 3697 c-43 -44 -65 -91 -76 -169 -6 -38 -11 -48 -27 -48 -10 0
-19 -3 -19 -7 1 -9 91 -66 95 -61 2 2 19 31 39 66 34 56 39 62 63 56 l25 -7
-6 54 c-16 129 -19 140 -36 149 -13 7 -26 0 -58 -33z"/>
</g>
</svg>
